<svg width="210" height="19" viewBox="0 0 210 19" fill="none" xmlns="http://www.w3.org/2000/svg">
<path d="M3.648 18.116V11.54H9.96V8.396H3.648V4.052H11.136V0.883998H0V18.116H3.648Z" fill="black"/>
<path d="M21.7526 11.636L27.8966 0.883998H24.2246L20.0486 8.3L15.9446 0.883998H12.0086L18.1046 11.636V18.116H21.7526V11.636Z" fill="black"/>
<path d="M33.4605 18.116V12.02H35.7405L39.6285 18.116H43.9725L39.5325 11.468C41.9805 10.652 43.4205 8.804 43.4205 6.476C43.4205 2.9 40.9005 0.883998 36.5565 0.883998H29.8125V18.116H33.4605ZM33.4605 3.908H36.3885C38.5965 3.908 39.7725 4.772 39.7725 6.476C39.7725 8.156 38.5965 9.02 36.3885 9.02H33.4605V3.908Z" fill="black"/>
<path d="M49.8902 18.116V12.02H52.1702L56.0582 18.116H60.4022L55.9622 11.468C58.4102 10.652 59.8502 8.804 59.8502 6.476C59.8502 2.9 57.3302 0.883998 52.9862 0.883998H46.2422V18.116H49.8902ZM49.8902 3.908H52.8182C55.0262 3.908 56.2022 4.772 56.2022 6.476C56.2022 8.156 55.0262 9.02 52.8182 9.02H49.8902V3.908Z" fill="black"/>
<path d="M74.2639 14.948H66.3199V10.82H73.3759V7.676H66.3199V4.052H74.0959V0.883998H62.6719V18.116H74.2639V14.948Z" fill="black"/>
<path d="M89.9256 18.116H92.9736L97.5336 6.572V18.116H100.846V0.883998H96.4776L91.4616 13.652L86.4696 0.883998H82.1016V18.116H85.4136V6.668L89.9256 18.116Z" fill="black"/>
<path d="M115.887 18.116H119.799L113.367 0.883998H109.383L102.903 18.116H106.575L107.895 14.42H114.591L115.887 18.116ZM111.279 4.868L113.583 11.516H108.927L111.279 4.868Z" fill="black"/>
<path d="M128.763 18.476C134.259 18.476 137.667 14.444 137.451 8.828H128.571V11.732H133.563C133.083 13.868 131.475 15.38 128.931 15.38C125.475 15.38 123.627 12.836 123.627 9.524C123.627 5.828 125.739 3.788 128.523 3.788C130.827 3.788 132.411 5.108 132.939 6.86H137.235C136.107 3.116 132.987 0.523998 128.619 0.523998C123.579 0.523998 119.883 4.34 119.883 9.428C119.883 14.756 123.771 18.476 128.763 18.476Z" fill="black"/>
<path d="M150.598 18.116H154.51L148.078 0.883998H144.094L137.614 18.116H141.286L142.606 14.42H149.302L150.598 18.116ZM145.99 4.868L148.294 11.516H143.638L145.99 4.868Z" fill="black"/>
<path d="M169.401 18.116V14.972H160.257L169.113 3.812V0.883998H155.841V4.028H164.625L155.817 15.236V18.116H169.401Z" fill="black"/>
<path d="M175.703 18.116V0.883998H172.055V18.116H175.703Z" fill="black"/>
<path d="M190.459 18.116H194.035V0.883998H190.675V12.308L183.163 0.883998H179.227V18.116H182.563V6.092L190.459 18.116Z" fill="black"/>
<path d="M209.17 14.948H201.226V10.82H208.282V7.676H201.226V4.052H209.002V0.883998H197.578V18.116H209.17V14.948Z" fill="black"/>
</svg>
